<?xml version="1.0" encoding="UTF-8"?>
<svg version="1.1" xmlns="http://www.w3.org/2000/svg" width="256" height="256">
<path d="M0 0 C84.48 0 168.96 0 256 0 C256 84.48 256 168.96 256 256 C171.52 256 87.04 256 0 256 C0 171.52 0 87.04 0 0 Z " fill="#FDFDFD" transform="translate(0,0)"/>
<path d="M0 0 C0.70266872 -0.00311998 1.40533745 -0.00623996 2.12929916 -0.00945449 C4.49546322 -0.01746328 6.86137287 -0.01109977 9.22753906 -0.00482178 C10.9191503 -0.00753037 12.61076036 -0.01109055 14.30236816 -0.01544189 C18.90557225 -0.02458392 23.50868699 -0.0210142 28.1118927 -0.01468372 C32.92095182 -0.00963309 37.7300031 -0.01431256 42.5390625 -0.01745605 C50.61622496 -0.02109844 58.69335089 -0.01628947 66.77050781 -0.0067749 C76.11929629 0.00411017 85.46799754 0.00058478 94.81678391 -0.01042771 C102.83208337 -0.01949284 110.84735652 -0.02078967 118.86265945 -0.01555037 C123.65483277 -0.0124264 128.44696504 -0.012033 133.23913574 -0.01862335 C137.74362792 -0.02438495 142.24800724 -0.02042177 146.75248718 -0.00883484 C148.4093558 -0.00618188 150.06623385 -0.00696412 151.72309875 -0.01136017 C153.97763841 -0.01679215 156.23181205 -0.01001048 158.48632812 0 C159.75027405 0.00075405 161.01421997 0.0015081 162.31646729 0.002285 C165.24316406 0.25396729 165.24316406 0.25396729 167.24316406 2.25396729 C167.49763966 5.0997839 167.49763966 5.0997839 167.50386047 8.81425476 C167.50768602 9.49580016 167.51151157 10.17734555 167.51545304 10.87954384 C167.52581146 13.17426953 167.52178561 15.46874632 167.51782227 17.76348877 C167.52216718 19.40421786 167.52734959 21.04494492 167.53330994 22.68566895 C167.54673507 27.15050833 167.54727471 31.61526325 167.54474664 36.08011889 C167.54367928 39.80296517 167.54855426 43.52579419 167.55335206 47.24863678 C167.56445945 56.02915388 167.56487777 64.8096282 167.55883789 73.59014893 C167.55279619 82.65833785 167.56511127 91.72637169 167.58640796 100.79453415 C167.60400226 108.57121251 167.61002875 116.34784141 167.60677022 124.12453896 C167.6049537 128.77313167 167.60763002 133.42161377 167.62148476 138.07018852 C167.63402322 142.44093776 167.63215699 146.8114446 167.61907387 151.18218994 C167.61669979 152.78865197 167.61947235 154.39513084 167.62769699 156.00157356 C167.63809657 158.19023241 167.63011962 160.37806768 167.61738586 162.56669617 C167.61755361 163.79284858 167.61772135 165.01900099 167.61789417 166.28230953 C167.24316406 169.25396729 167.24316406 169.25396729 166.1444273 171.1481123 C163.24498436 172.83455075 160.78608595 172.63189105 157.44873047 172.63491821 C156.75407999 172.63959818 156.05942951 172.64427816 155.34372902 172.64909995 C153.01053535 172.66108877 150.67792484 172.65157795 148.34472656 172.64215088 C146.67429256 172.64621487 145.00386125 172.65155578 143.33343506 172.65808105 C138.792167 172.67178105 134.25110295 172.66644498 129.70983124 172.6569438 C124.96263571 172.64936107 120.21545792 172.65638894 115.46826172 172.66110229 C107.49541073 172.6665639 99.52264304 172.65935763 91.54980469 172.64508057 C82.32537727 172.62875327 73.10114875 172.6340415 63.87672615 172.65055978 C55.96414039 172.66416313 48.05161459 172.66609996 40.13902092 172.65824378 C35.40996921 172.65356091 30.68101107 172.6529592 25.95196533 172.66285324 C21.50649938 172.67150391 17.06129047 172.66553593 12.61585236 172.64817047 C10.98198117 172.64419543 9.34808845 172.645357 7.71422577 172.65195847 C5.48838862 172.66012423 3.26338153 172.64991368 1.03759766 172.63491821 C-0.20937897 172.63378714 -1.45635559 172.63265606 -2.74111938 172.63149071 C-5.75683594 172.25396729 -5.75683594 172.25396729 -7.65809917 171.1481123 C-9.32297981 168.27797501 -9.13150955 165.8693423 -9.13105774 162.56669617 C-9.13503215 161.88359078 -9.13900655 161.20048539 -9.14310139 160.49667984 C-9.15274316 158.20259335 -9.14089553 155.90912068 -9.12915039 153.61505127 C-9.13157772 151.97255218 -9.13529647 150.33005456 -9.14021301 148.68756104 C-9.14963296 144.22279213 -9.14018775 139.75824201 -9.12688088 135.29349017 C-9.11558256 130.62724436 -9.11967259 125.96100958 -9.12162781 121.29475403 C-9.12251121 113.45893774 -9.11142003 105.62320789 -9.09301758 97.78741455 C-9.07184187 88.71864171 -9.06834136 79.64999548 -9.07457954 70.58120292 C-9.08026707 61.86788534 -9.07463524 53.15461248 -9.06340599 44.44130135 C-9.05875264 40.72800942 -9.05788931 37.01474479 -9.05999184 33.30145073 C-9.06187055 28.93236199 -9.05380315 24.56340277 -9.03793144 20.19434357 C-9.03367617 18.58746692 -9.03284634 16.98057716 -9.03562164 15.37369728 C-9.03882625 13.18707262 -9.02980575 11.00083917 -9.01753235 8.81425476 C-9.01547948 7.58847938 -9.01342661 6.36270399 -9.01131153 5.0997839 C-8.49030696 -0.72664303 -4.96777817 0.0029637 0 0 Z " fill="#075CC4" transform="translate(48.7568359375,43.74603271484375)"/>
<path d="M0 0 C54.12 0 108.24 0 164 0 C164 15.84 164 31.68 164 48 C109.88 48 55.76 48 0 48 C0 32.16 0 16.32 0 0 Z " fill="#FCFDFD" transform="translate(46,161)"/>
<path d="M0 0 C53.46 0 106.92 0 162 0 C162 14.85 162 29.7 162 45 C108.54 45 55.08 45 0 45 C0 30.15 0 15.3 0 0 Z " fill="#FEFEFF" transform="translate(47,51)"/>
<path d="M0 0 C0.70266872 -0.00311998 1.40533745 -0.00623996 2.12929916 -0.00945449 C4.49546322 -0.01746328 6.86137287 -0.01109977 9.22753906 -0.00482178 C10.9191503 -0.00753037 12.61076036 -0.01109055 14.30236816 -0.01544189 C18.90557225 -0.02458392 23.50868699 -0.0210142 28.1118927 -0.01468372 C32.92095182 -0.00963309 37.7300031 -0.01431256 42.5390625 -0.01745605 C50.61622496 -0.02109844 58.69335089 -0.01628947 66.77050781 -0.0067749 C76.11929629 0.00411017 85.46799754 0.00058478 94.81678391 -0.01042771 C102.83208337 -0.01949284 110.84735652 -0.02078967 118.86265945 -0.01555037 C123.65483277 -0.0124264 128.44696504 -0.012033 133.23913574 -0.01862335 C137.74362792 -0.02438495 142.24800724 -0.02042177 146.75248718 -0.00883484 C148.4093558 -0.00618188 150.06623385 -0.00696412 151.72309875 -0.01136017 C153.97763841 -0.01679215 156.23181205 -0.01001048 158.48632812 0 C159.75027405 0.00075405 161.01421997 0.0015081 162.31646729 0.002285 C165.24316406 0.25396729 165.24316406 0.25396729 167.24316406 2.25396729 C167.49763966 5.0997839 167.49763966 5.0997839 167.50386047 8.81425476 C167.50768602 9.49580016 167.51151157 10.17734555 167.51545304 10.87954384 C167.52581146 13.17426953 167.52178561 15.46874632 167.51782227 17.76348877 C167.52216718 19.40421786 167.52734959 21.04494492 167.53330994 22.68566895 C167.54673507 27.15050833 167.54727471 31.61526325 167.54474664 36.08011889 C167.54367928 39.80296517 167.54855426 43.52579419 167.55335206 47.24863678 C167.56445945 56.02915388 167.56487777 64.8096282 167.55883789 73.59014893 C167.55279619 82.65833785 167.56511127 91.72637169 167.58640796 100.79453415 C167.60400226 108.57121251 167.61002875 116.34784141 167.60677022 124.12453896 C167.6049537 128.77313167 167.60763002 133.42161377 167.62148476 138.07018852 C167.63402322 142.44093776 167.63215699 146.8114446 167.61907387 151.18218994 C167.61669979 152.78865197 167.61947235 154.39513084 167.62769699 156.00157356 C167.63809657 158.19023241 167.63011962 160.37806768 167.61738586 162.56669617 C167.61755361 163.79284858 167.61772135 165.01900099 167.61789417 166.28230953 C167.24316406 169.25396729 167.24316406 169.25396729 166.1444273 171.1481123 C163.24498436 172.83455075 160.78608595 172.63189105 157.44873047 172.63491821 C156.75407999 172.63959818 156.05942951 172.64427816 155.34372902 172.64909995 C153.01053535 172.66108877 150.67792484 172.65157795 148.34472656 172.64215088 C146.67429256 172.64621487 145.00386125 172.65155578 143.33343506 172.65808105 C138.792167 172.67178105 134.25110295 172.66644498 129.70983124 172.6569438 C124.96263571 172.64936107 120.21545792 172.65638894 115.46826172 172.66110229 C107.49541073 172.6665639 99.52264304 172.65935763 91.54980469 172.64508057 C82.32537727 172.62875327 73.10114875 172.6340415 63.87672615 172.65055978 C55.96414039 172.66416313 48.05161459 172.66609996 40.13902092 172.65824378 C35.40996921 172.65356091 30.68101107 172.6529592 25.95196533 172.66285324 C21.50649938 172.67150391 17.06129047 172.66553593 12.61585236 172.64817047 C10.98198117 172.64419543 9.34808845 172.645357 7.71422577 172.65195847 C5.48838862 172.66012423 3.26338153 172.64991368 1.03759766 172.63491821 C-0.20937897 172.63378714 -1.45635559 172.63265606 -2.74111938 172.63149071 C-5.75683594 172.25396729 -5.75683594 172.25396729 -7.65809917 171.1481123 C-9.32297981 168.27797501 -9.13150955 165.8693423 -9.13105774 162.56669617 C-9.13503215 161.88359078 -9.13900655 161.20048539 -9.14310139 160.49667984 C-9.15274316 158.20259335 -9.14089553 155.90912068 -9.12915039 153.61505127 C-9.13157772 151.97255218 -9.13529647 150.33005456 -9.14021301 148.68756104 C-9.14963296 144.22279213 -9.14018775 139.75824201 -9.12688088 135.29349017 C-9.11558256 130.62724436 -9.11967259 125.96100958 -9.12162781 121.29475403 C-9.12251121 113.45893774 -9.11142003 105.62320789 -9.09301758 97.78741455 C-9.07184187 88.71864171 -9.06834136 79.64999548 -9.07457954 70.58120292 C-9.08026707 61.86788534 -9.07463524 53.15461248 -9.06340599 44.44130135 C-9.05875264 40.72800942 -9.05788931 37.01474479 -9.05999184 33.30145073 C-9.06187055 28.93236199 -9.05380315 24.56340277 -9.03793144 20.19434357 C-9.03367617 18.58746692 -9.03284634 16.98057716 -9.03562164 15.37369728 C-9.03882625 13.18707262 -9.02980575 11.00083917 -9.01753235 8.81425476 C-9.01547948 7.58847938 -9.01342661 6.36270399 -9.01131153 5.0997839 C-8.49030696 -0.72664303 -4.96777817 0.0029637 0 0 Z M-2.75683594 6.25396729 C-2.75683594 58.72396729 -2.75683594 111.19396729 -2.75683594 165.25396729 C51.36316406 165.25396729 105.48316406 165.25396729 161.24316406 165.25396729 C161.24316406 112.78396729 161.24316406 60.31396729 161.24316406 6.25396729 C107.12316406 6.25396729 53.00316406 6.25396729 -2.75683594 6.25396729 Z " fill="#030303" transform="translate(48.7568359375,43.74603271484375)"/>
<path d="M0 0 C5.754375 -0.12375 5.754375 -0.12375 11.625 -0.25 C12.82334473 -0.28641602 14.02168945 -0.32283203 15.25634766 -0.36035156 C21.49759014 -0.42533175 25.29943401 -0.2618465 30 4 C32.90834913 7.49001896 33.48279777 10.45815128 33.28515625 15.00390625 C32.8312286 18.1813998 31.81539318 20.37080987 30 23 C28.35 23.66 26.7 24.32 25 25 C27.64 30.28 30.28 35.56 33 41 C30.03 41 27.06 41 24 41 C23.27296875 39.50146484 23.27296875 39.50146484 22.53125 37.97265625 C21.85570245 36.66847417 21.17853295 35.36513135 20.5 34.0625 C20.18546875 33.40314453 19.8709375 32.74378906 19.546875 32.06445312 C17.5658536 28.28664945 17.5658536 28.28664945 13.93359375 26.33544922 C11.47563529 25.98756934 11.47563529 25.98756934 8 26 C8 30.95 8 35.9 8 41 C5.36 41 2.72 41 0 41 C0 27.47 0 13.94 0 0 Z " fill="#000204" transform="translate(116,109)"/>
<path d="M0 0 C10 0 10 0 12.78759766 2.47851562 C13.53235678 3.59800064 14.24009046 4.7427748 14.9140625 5.90625 C15.4921315 6.80518982 15.4921315 6.80518982 16.08187866 7.72229004 C17.29728804 9.62894352 18.46058431 11.56187657 19.625 13.5 C20.44335863 14.80283212 21.2649446 16.10364295 22.08984375 17.40234375 C24.10508516 20.57726131 26.04684948 23.7830462 28 27 C28.33 18.09 28.66 9.18 29 0 C31.64 0 34.28 0 37 0 C37 13.53 37 27.06 37 41 C27 41 27 41 24.64306641 39.16748047 C23.88002197 37.90508545 23.88002197 37.90508545 23.1015625 36.6171875 C22.52019531 35.69679687 21.93882813 34.77640625 21.33984375 33.828125 C20.77394531 32.85359375 20.20804688 31.8790625 19.625 30.875 C19.03589844 29.92367187 18.44679688 28.97234375 17.83984375 27.9921875 C16.73699381 26.20780108 15.64870577 24.41426513 14.58056641 22.60888672 C12.80854832 19.6839894 10.89696701 16.84545051 9 14 C8.67 22.91 8.34 31.82 8 41 C5.36 41 2.72 41 0 41 C0 27.47 0 13.94 0 0 Z " fill="#000408" transform="translate(70,109)"/>
<path d="M0 0 C10.89 0 21.78 0 33 0 C33 2.31 33 4.62 33 7 C29.04 7 25.08 7 21 7 C21 18.22 21 29.44 21 41 C18.36 41 15.72 41 13 41 C13 29.78 13 18.56 13 7 C8.71 7 4.42 7 0 7 C0 4.69 0 2.38 0 0 Z " fill="#000001" transform="translate(152,109)"/>
<path d="M0 0 C1.8975 -0.061875 3.795 -0.12375 5.75 -0.1875 C7.35101563 -0.23970703 7.35101563 -0.23970703 8.984375 -0.29296875 C12.34613734 0.03362733 13.67993356 0.57472768 16 3 C16.4375 6.5625 16.4375 6.5625 16 10 C12.36804504 12.42130331 10.61650652 12.21022785 6.3125 12.125 C5.13300781 12.10695312 3.95351562 12.08890625 2.73828125 12.0703125 C1.83464844 12.04710937 0.93101563 12.02390625 0 12 C0 8.04 0 4.08 0 0 Z " fill="#0059C5" transform="translate(124,116)"/>
</svg>
